# Blender 4.5.3 LTS
# www.blender.org
mtllib PSX Radio Receiver.mtl
o PSX_style
v -0.190166 0.019789 0.144081
v -0.190166 0.197155 0.144081
v -0.190166 0.019789 -0.144081
v -0.190166 0.197155 -0.144081
v 0.190166 0.014417 0.151054
v 0.190166 0.202528 0.151054
v 0.190166 0.014417 -0.151054
v 0.190166 0.202528 -0.151054
v -0.190166 0.014417 -0.151054
v -0.190166 0.014417 0.151054
v -0.190166 0.202528 0.151054
v -0.190166 0.202528 -0.151054
v -0.182671 0.019789 -0.144081
v -0.182671 0.019789 0.144081
v -0.182671 0.197155 0.144081
v -0.182671 0.197155 -0.144081
vn -0.0000 -1.0000 -0.0000
vn -0.0000 -0.0000 -1.0000
vn 1.0000 -0.0000 -0.0000
vn -0.0000 -0.0000 1.0000
vn -0.0000 1.0000 -0.0000
vn -1.0000 -0.0000 -0.0000
vt 0.861682 0.221025
vt 0.031858 0.221025
vt 0.010336 0.571228
vt 0.009675 0.778271
vt 0.802740 0.778271
vt 0.803401 0.571228
vt 0.843351 0.788676
vt 0.843351 0.995241
vt 0.015376 0.995241
vt 0.015376 0.788676
vt 0.803473 0.572500
vt 0.803473 0.777823
vt 0.009299 0.777823
vt 0.009299 0.572500
vt 0.015078 0.246514
vt 0.015078 0.560172
vt 0.881701 0.560172
vt 0.881701 0.246514
vt 0.012822 0.559271
vt 0.012822 0.246916
vt 0.878375 0.246916
vt 0.878375 0.559271
vt 0.861682 0.017721
vt 0.031858 0.017721
vt 0.007487 0.004959
vt 0.886053 0.004959
vt 0.886053 0.232790
vt 0.007487 0.232790
vt 0.863133 0.019236
vt 0.863133 0.221025
vt 0.031858 0.221025
vt 0.031858 0.019236
s 0
usemtl Radio
f 2/1/1 4/2/1 16/2/1 15/1/1
f 9/3/2 12/4/2 8/5/2 7/6/2
f 7/7/3 8/8/3 6/9/3 5/10/3
f 5/11/4 6/12/4 11/13/4 10/14/4
f 9/15/1 7/16/1 5/17/1 10/18/1
f 8/19/5 12/20/5 11/21/5 6/22/5
f 1/23/6 3/24/6 9/25/6 10/26/6
f 2/1/6 1/23/6 10/26/6 11/27/6
f 4/2/6 2/1/6 11/27/6 12/28/6
f 3/24/6 4/2/6 12/28/6 9/25/6
f 14/29/6 15/30/6 16/31/6 13/32/6
f 3/24/5 1/23/5 14/29/5 13/32/5
f 4/2/4 3/24/4 13/32/4 16/2/4
f 1/23/2 2/1/2 15/1/2 14/29/2
