# Blender 4.0.0
# www.blender.org
mtllib box.mtl
o box
v 0.186826 0.133689 -0.277185
v 0.186826 -0.133689 -0.277185
v 0.186826 0.133689 0.277185
v 0.186826 -0.133689 0.277185
v -0.186826 0.133689 -0.277185
v -0.186826 -0.133689 -0.277185
v -0.186826 0.133689 0.277185
v -0.186826 -0.133689 0.277185
vn -0.0000 1.0000 -0.0000
vn -0.0000 -0.0000 1.0000
vn -1.0000 -0.0000 -0.0000
vn -0.0000 -1.0000 -0.0000
vn 1.0000 -0.0000 -0.0000
vn -0.0000 -0.0000 -1.0000
vt 0.558341 -0.000000
vt 0.421415 -0.000000
vt 0.421416 0.740168
vt 0.558341 0.740168
vt 0.684044 0.500966
vt 0.894751 0.500966
vt 0.894751 1.000000
vt 0.684044 1.000000
vt 0.210708 0.740314
vt 0.421416 0.740314
vt 0.210708 -0.000000
vt 0.684044 0.531830
vt 0.684044 0.208484
vt 0.558341 0.208484
vt 0.558341 0.531830
vt 0.000000 0.740314
vt 0.210708 0.740314
vt 0.210708 -0.000000
vt 0.000000 -0.000000
vt 0.894751 -0.000000
vt 0.684044 -0.000000
s 0
usemtl Material.001
f 1/1/1 5/2/1 7/3/1 3/4/1
f 4/5/2 3/6/2 7/7/2 8/8/2
f 8/9/3 7/10/3 5/2/3 6/11/3
f 6/12/4 2/13/4 4/14/4 8/15/4
f 2/16/5 1/17/5 3/18/5 4/19/5
f 6/5/6 5/6/6 1/20/6 2/21/6
