# Blender 4.0.0
# www.blender.org
mtllib painting.mtl
o painting
v -0.391372 -0.276636 0.028920
v -0.391372 0.276636 0.028920
v -0.505486 -0.356626 -0.028920
v -0.505486 0.356626 -0.028920
v 0.391372 -0.276636 0.028920
v 0.391372 0.276636 0.028920
v 0.505486 -0.356626 -0.028920
v 0.505486 0.356626 -0.028920
v -0.505486 -0.356626 0.028920
v -0.505486 0.356626 0.028920
v 0.505486 0.356626 0.028920
v 0.505486 -0.356626 0.028920
v -0.391372 -0.276636 -0.021703
v -0.391372 0.276636 -0.021703
v 0.391372 0.276636 -0.021703
v 0.391372 -0.276636 -0.021703
vn -1.0000 -0.0000 -0.0000
vn -0.0000 -0.0000 -1.0000
vn 1.0000 -0.0000 -0.0000
vn -0.0000 -1.0000 -0.0000
vn -0.0000 1.0000 -0.0000
vn -0.0000 -0.0000 1.0000
vt 0.038004 0.155839
vt 0.038004 0.853584
vt 0.086996 0.853584
vt 0.086996 0.155839
vt 0.440311 0.035409
vt 0.501095 0.035409
vt 0.501095 0.092683
vt 0.440311 0.092683
vt 0.092618 0.446369
vt 0.031343 0.446369
vt 0.031343 0.543126
vt 0.092618 0.543126
vt 0.039419 0.853584
vt 0.085581 0.853584
vt 0.085581 0.155839
vt 0.039419 0.155839
vt 0.970347 0.853584
vt 0.924184 0.853584
vt 0.924184 0.155839
vt 0.970347 0.155839
vt 0.134235 0.837512
vt 0.873577 0.837512
vt 0.980469 0.937510
vt 0.027344 0.937510
vt 0.873578 0.151593
vt 0.134235 0.151593
vt 0.027344 0.051595
vt 0.980469 0.051595
vt 0.134235 0.151593
vt 0.134235 0.837512
vt 0.027344 0.937510
vt 0.027344 0.051595
vt 0.873577 0.837512
vt 0.873577 0.151593
vt 0.980469 0.051595
vt 0.980469 0.937510
vt 0.134235 0.151593
vt 0.873577 0.151593
vt 0.134235 0.837512
vt 0.034763 0.439315
vt 0.034763 0.525069
vt 0.108276 0.525069
vt 0.108276 0.439315
vt 0.092618 0.543126
s 0
usemtl painting
f 9/1/1 10/2/1 4/3/1 3/4/1
f 3/5/2 4/6/2 8/7/2 7/8/2
f 7/4/3 8/3/3 11/2/3 12/1/3
f 6/9/4 2/10/4 14/11/4 15/12/4
f 3/13/4 7/14/4 12/15/4 9/16/4
f 8/17/5 4/18/5 10/19/5 11/20/5
f 1/21/6 2/22/6 10/23/6 9/24/6
f 6/25/6 5/26/6 12/27/6 11/28/6
f 5/29/6 1/30/6 9/31/6 12/32/6
f 2/33/6 6/34/6 11/35/6 10/36/6
f 16/37/6 15/38/6 14/22/6 13/39/6
f 5/40/1 6/41/1 15/42/1 16/43/1
f 1/10/5 5/9/5 16/44/5 13/11/5
f 2/41/3 1/40/3 13/43/3 14/42/3
