# Blender 4.0.0
# www.blender.org
mtllib shelf.mtl
o shelf
v 0.225958 0.005977 -0.552640
v -0.178241 0.013446 -0.550341
v -0.182046 2.255079 -0.570574
v 0.213084 2.247595 -0.572821
v 0.226153 0.006164 -0.519016
v -0.178091 0.013590 -0.524487
v -0.181851 2.255267 -0.536949
v 0.202899 2.247808 -0.531365
v 0.212058 -0.004209 0.527548
v -0.173956 -0.004804 0.537037
v -0.166982 2.253099 0.531782
v 0.216985 2.253604 0.506828
v 0.233021 0.004142 0.560223
v -0.161733 0.019746 0.577790
v -0.176254 2.261364 0.558031
v 0.228928 2.237641 0.540043
v 0.190599 0.082026 -0.527003
v -0.153259 0.105806 -0.517373
v -0.144139 0.058523 -0.517162
v 0.190638 0.059030 -0.526875
v 0.187620 0.112181 0.526486
v -0.146027 0.111632 0.528422
v -0.154975 0.056185 0.528782
v 0.195638 0.048772 0.534564
v 0.225765 0.561028 -0.517694
v -0.123965 0.642294 -0.496854
v -0.134461 0.600608 -0.525061
v 0.210173 0.515439 -0.540418
v 0.168643 0.112217 0.425086
v -0.156117 0.184652 0.451604
v -0.183448 0.127021 0.431351
v 0.152665 0.079446 0.409274
v 0.121486 1.343606 -0.539279
v -0.208390 1.280154 -0.487949
v -0.202962 1.246355 -0.483278
v 0.119365 1.302382 -0.533236
v 0.182408 1.485500 0.525423
v -0.160331 1.477265 0.545217
v -0.154305 1.436665 0.550454
v 0.178852 1.445238 0.538924
v 0.185407 2.200164 -0.538189
v -0.156780 2.181844 -0.528582
v -0.163694 2.138930 -0.528903
v 0.178494 2.157251 -0.538510
v 0.182501 2.193665 0.515414
v -0.150658 2.175827 0.524973
v -0.148152 2.109930 0.524630
v 0.194035 2.128250 0.515023
v 0.198375 0.456383 -0.277006
v 0.182716 0.326042 -0.036888
v 0.171381 0.218984 0.189550
v -0.128559 0.508185 -0.262407
v -0.142963 0.396525 -0.019868
v -0.154526 0.291667 0.216129
v -0.137800 0.485181 -0.288192
v -0.154605 0.355087 -0.048015
v -0.162957 0.251686 0.197360
v 0.189184 0.403831 -0.302627
v 0.180817 0.284646 -0.055999
v 0.170629 0.177341 0.170380
v 0.138112 1.384989 -0.254556
v 0.150395 1.415267 -0.007994
v 0.170163 1.467239 0.272486
v -0.196070 1.367688 -0.228205
v -0.176123 1.398512 0.017913
v -0.172549 1.442837 0.292370
v -0.182873 1.322125 -0.222639
v -0.170962 1.351357 0.016237
v -0.166894 1.401191 0.289920
v 0.142994 1.344308 -0.249253
v 0.154625 1.380014 -0.003398
v 0.166755 1.415272 0.277617
v 0.187302 2.191363 -0.274864
v 0.189773 2.172381 0.000994
v 0.190608 2.183975 0.256726
v -0.153989 2.130592 -0.273390
v -0.142489 2.112093 0.002419
v -0.158512 2.106617 0.258332
v 0.189053 2.156229 -0.275169
v 0.182450 2.136809 -0.007034
v 0.200579 2.141963 0.256315
v -0.147075 2.173506 -0.273070
v -0.152841 2.145279 -0.004787
v -0.160609 2.165172 0.266381
v 0.200009 0.099717 -0.255975
v 0.201534 0.091467 0.004551
v 0.186184 0.101084 0.275768
v 0.192208 0.060540 -0.255712
v 0.184692 0.052276 0.004867
v 0.186263 0.053786 0.276031
v -0.142679 0.099153 -0.253987
v -0.149007 0.082857 0.006630
v -0.156508 0.092012 0.270120
v -0.150466 0.051843 -0.253679
v -0.148910 0.051770 0.014573
v -0.139563 0.053207 0.270150
v 0.193648 0.959559 0.530472
v -0.148627 0.941155 0.525034
v -0.155507 0.882080 0.526002
v 0.186741 0.916652 0.531350
v 0.178537 0.941325 -0.522890
v -0.154709 0.923403 -0.528389
v -0.152222 0.873682 -0.527431
v 0.190052 0.892086 -0.521994
v 0.192492 0.947825 0.267257
v 0.191769 0.925772 -0.008383
v 0.189641 0.934517 -0.264221
v -0.148761 0.870896 0.270503
v -0.140483 0.865493 -0.005288
v -0.159496 0.873336 -0.261010
v 0.194276 0.896528 0.268023
v 0.184542 0.890292 0.000125
v 0.199618 0.892511 -0.263457
v -0.141859 0.916591 0.269609
v -0.150781 0.914926 0.001578
v -0.161635 0.899463 -0.269507
v 0.197673 1.847792 0.520526
v -0.142971 1.819451 0.530583
v -0.138269 1.791951 0.530709
v 0.194515 1.834043 0.520621
v 0.192077 1.864975 -0.546261
v -0.158244 1.839763 -0.544092
v -0.152349 1.797948 -0.543893
v 0.187752 1.822384 -0.553925
v 0.190059 1.846354 0.259842
v 0.188953 1.848579 0.006015
v 0.193596 1.860853 -0.285511
v -0.151910 1.812937 0.254083
v -0.145183 1.816745 0.000202
v -0.156725 1.835641 -0.283341
v -0.138743 1.780411 0.254187
v -0.139790 1.774874 0.008330
v -0.150766 1.783277 -0.275158
v 0.194764 1.817002 0.259978
v 0.193039 1.817845 0.006163
v 0.189847 1.829554 -0.285315
vn -0.0059 -0.0090 -0.9999
vn -0.0139 0.0054 0.9999
vn -0.0184 -0.9998 0.0057
vn 0.0192 0.9998 -0.0028
vn 0.9912 0.0089 0.1318
vn -0.0033 -0.9120 0.4101
vn 0.0361 0.9913 0.1267
vn -0.0288 -0.0086 -0.9995
vn -0.0049 0.0709 0.9975
vn 0.9972 0.0713 -0.0220
vn -0.0139 0.9981 -0.0599
vn -0.0100 -0.9999 -0.0041
vn -0.9964 -0.0846 -0.0058
vn 0.0713 0.4868 -0.8706
vn 0.0009 -0.3709 0.9287
vn 0.9789 -0.1997 -0.0434
vn 0.2304 0.8853 0.4039
vn -0.1921 -0.8818 -0.4307
vn -0.9466 0.3045 0.1058
vn -0.1257 -0.1457 -0.9813
vn 0.0395 0.2267 0.9732
vn 0.9958 -0.0831 -0.0393
vn -0.0531 0.9935 -0.1009
vn 0.0381 -0.9917 0.1226
vn -0.9882 -0.1381 0.0666
vn -0.0287 0.0121 -0.9995
vn 0.0285 -0.0025 0.9996
vn 0.9802 0.1960 0.0293
vn -0.0545 0.9977 -0.0390
vn 0.0760 -0.9969 -0.0203
vn -0.9984 -0.0396 0.0397
vn -0.9717 0.2151 0.0975
vn -0.9642 0.2569 0.0663
vn -0.9761 0.2112 0.0510
vn -0.2353 -0.8721 -0.4292
vn -0.2136 -0.8650 -0.4540
vn -0.2136 -0.8888 -0.4054
vn 0.1949 0.8711 0.4508
vn 0.1855 0.8737 0.4496
vn 0.2216 0.8823 0.4153
vn 0.9707 -0.2400 -0.0103
vn 0.9936 -0.1130 -0.0089
vn 0.9987 -0.0441 0.0266
vn -0.9692 -0.2111 0.1266
vn -0.9779 -0.1899 0.0878
vn -0.9919 -0.1224 0.0349
vn 0.1405 -0.9700 0.1984
vn 0.0862 -0.9880 0.1282
vn 0.0712 -0.9862 0.1492
vn -0.1432 0.9648 -0.2208
vn -0.0605 0.9911 -0.1190
vn -0.0719 0.9832 -0.1676
vn 0.9970 0.0233 -0.0740
vn 0.9918 0.1108 -0.0630
vn 0.9984 0.0030 -0.0572
vn -0.9864 0.1586 0.0426
vn -0.9990 -0.0445 0.0067
vn -0.9901 -0.1340 -0.0410
vn 0.0637 -0.9978 -0.0205
vn 0.0738 -0.9948 -0.0700
vn 0.0875 -0.9962 -0.0010
vn -0.0528 0.9980 0.0341
vn -0.0665 0.9941 0.0858
vn -0.0662 0.9960 -0.0604
vn 0.9975 -0.0658 -0.0248
vn 0.9969 -0.0788 0.0020
vn 0.9986 0.0382 -0.0377
vn -0.9999 -0.0140 0.0077
vn -0.9953 0.0970 -0.0060
vn -0.9717 -0.2360 0.0083
vn 0.0134 -0.9999 -0.0095
vn 0.0133 -0.9998 -0.0156
vn 0.0017 -1.0000 0.0056
vn 0.0334 0.9992 -0.0219
vn -0.0129 0.9988 0.0469
vn -0.0253 0.9990 -0.0362
vn 0.9922 -0.1240 -0.0157
vn 0.9540 -0.3000 0.0015
vn 0.9814 -0.1900 0.0288
vn 0.8944 -0.0042 -0.4472
vn 0.0448 0.0091 0.9990
vn -0.0447 -0.0056 -0.9990
vn -0.9990 -0.0014 0.0447
vn -1.0000 -0.0016 0.0058
vn -0.0173 0.0205 0.9996
vn 0.0171 -0.0163 -0.9997
vn 0.9729 0.2285 -0.0361
vn -0.0780 0.9952 0.0598
vn 0.0535 -0.9986 -0.0001
vn -0.9975 -0.0646 -0.0299
vn -0.9909 0.1297 -0.0353
vn -0.9994 -0.0358 0.0016
vn -0.9853 -0.1609 0.0582
vn 0.0871 -0.9942 0.0624
vn 0.0752 -0.9969 0.0211
vn 0.0642 -0.9977 -0.0198
vn -0.0727 0.9949 -0.0704
vn -0.0628 0.9971 -0.0424
vn -0.0661 0.9978 -0.0111
vn 0.9984 -0.0540 0.0154
vn 0.9978 -0.0643 -0.0159
vn 0.9989 0.0385 0.0257
vn 0.0292 0.0064 0.9996
vn -0.0239 0.0876 -0.9959
vn 0.9941 -0.1080 -0.0062
vn -0.0717 0.9973 0.0162
vn 0.1029 -0.9946 -0.0146
vn -0.9922 -0.1248 0.0014
vn -0.9581 -0.2851 0.0256
vn -0.9699 -0.2431 -0.0102
vn -0.9929 -0.1137 0.0340
vn 0.1174 -0.9917 0.0527
vn 0.1185 -0.9929 0.0087
vn 0.1306 -0.9907 -0.0379
vn -0.0902 0.9959 -0.0120
vn -0.0962 0.9953 0.0108
vn -0.0832 0.9950 0.0549
vn 0.9992 0.0358 -0.0154
vn 0.9895 0.1447 -0.0046
vn 1.0000 0.0054 0.0027
vt 0.062043 0.022566
vt 0.062043 0.984101
vt 0.196658 0.984101
vt 0.196658 0.022566
vt 0.017873 0.567436
vt 0.032296 0.567436
vt 0.032296 0.432821
vt 0.017873 0.432821
vt 0.017873 0.022566
vt 0.017873 0.984101
vt 0.032296 0.984101
vt 0.032296 0.022566
vt 0.967563 0.567371
vt 0.981971 0.567371
vt 0.981971 0.432892
vt 0.967563 0.432892
vt 0.570000 0.044433
vt 0.570000 0.023333
vt 0.430000 0.023333
vt 0.430000 0.044433
vt 0.617500 0.044433
vt 0.735000 0.044433
vt 0.735000 0.023333
vt 0.617500 0.023333
vt 0.617500 0.570000
vt 0.617500 0.430000
vt 0.735000 0.430000
vt 0.735000 0.570000
vt 0.570000 0.356099
vt 0.570000 0.328901
vt 0.430000 0.328901
vt 0.430000 0.356099
vt 0.617500 0.356099
vt 0.735000 0.356099
vt 0.735000 0.328901
vt 0.617500 0.328901
vt 0.570000 0.667766
vt 0.570000 0.640567
vt 0.430000 0.640567
vt 0.430000 0.667766
vt 0.617500 0.667766
vt 0.735000 0.667766
vt 0.735000 0.640567
vt 0.617500 0.640567
vt 0.570000 0.973333
vt 0.570000 0.952234
vt 0.430000 0.952234
vt 0.430000 0.973333
vt 0.617500 0.973333
vt 0.735000 0.973333
vt 0.735000 0.952234
vt 0.617500 0.952234
vt 0.265000 0.356099
vt 0.265000 0.328901
vt 0.382500 0.328901
vt 0.382500 0.356099
vt 0.500000 0.328901
vt 0.500000 0.356099
vt 0.265000 0.570000
vt 0.382500 0.570000
vt 0.382500 0.430000
vt 0.265000 0.430000
vt 0.500000 0.570000
vt 0.500000 0.430000
vt 0.265000 0.667766
vt 0.265000 0.640567
vt 0.382500 0.640567
vt 0.382500 0.667766
vt 0.500000 0.640567
vt 0.500000 0.667766
vt 0.265000 0.973333
vt 0.265000 0.952234
vt 0.382500 0.952234
vt 0.382500 0.973333
vt 0.500000 0.952234
vt 0.500000 0.973333
vt 0.265000 0.044433
vt 0.265000 0.023333
vt 0.382500 0.023333
vt 0.382500 0.044433
vt 0.500000 0.023333
vt 0.500000 0.044433
vt 0.967563 0.023053
vt 0.967563 0.983614
vt 0.981971 0.983614
vt 0.981971 0.023053
vt 0.947742 0.023053
vt 0.947742 0.983614
vt 0.813263 0.983614
vt 0.813263 0.023053
s 0
usemtl shelf
f 2/1/1 3/2/1 4/3/1 1/4/1
f 5/4/2 8/3/2 7/2/2 6/1/2
f 1/5/3 5/6/3 6/7/3 2/8/3
f 4/5/4 3/8/4 7/7/4 8/6/4
f 1/9/5 4/10/5 8/11/5 5/12/5
f 9/13/6 13/14/6 14/15/6 10/16/6
f 12/13/7 11/16/7 15/15/7 16/14/7
f 17/17/8 20/18/8 19/19/8 18/20/8
f 21/17/9 22/20/9 23/19/9 24/18/9
f 87/21/10 21/22/10 24/23/10 90/24/10
f 87/25/11 93/26/11 22/27/11 21/28/11
f 90/25/12 24/28/12 23/27/12 96/26/12
f 93/21/13 96/24/13 23/23/13 22/22/13
f 25/29/14 28/30/14 27/31/14 26/32/14
f 29/29/15 30/32/15 31/31/15 32/30/15
f 51/33/16 29/34/16 32/35/16 60/36/16
f 51/25/17 54/26/17 30/27/17 29/28/17
f 60/25/18 32/28/18 31/27/18 57/26/18
f 54/33/19 57/36/19 31/35/19 30/34/19
f 33/37/20 36/38/20 35/39/20 34/40/20
f 37/37/21 38/40/21 39/39/21 40/38/21
f 63/41/22 37/42/22 40/43/22 72/44/22
f 63/25/23 66/26/23 38/27/23 37/28/23
f 72/25/24 40/28/24 39/27/24 69/26/24
f 66/41/25 69/44/25 39/43/25 38/42/25
f 41/45/26 44/46/26 43/47/26 42/48/26
f 45/45/27 46/48/27 47/47/27 48/46/27
f 75/49/28 45/50/28 48/51/28 81/52/28
f 75/25/29 84/26/29 46/27/29 45/28/29
f 81/25/30 48/28/30 47/27/30 78/26/30
f 84/49/31 78/52/31 47/51/31 46/50/31
f 26/53/32 27/54/32 55/55/32 52/56/32
f 52/56/33 55/55/33 56/57/33 53/58/33
f 53/58/34 56/57/34 57/36/34 54/33/34
f 28/59/35 58/60/35 55/61/35 27/62/35
f 58/60/36 59/63/36 56/64/36 55/61/36
f 59/63/37 60/25/37 57/26/37 56/64/37
f 25/59/38 26/62/38 52/61/38 49/60/38
f 49/60/39 52/61/39 53/64/39 50/63/39
f 50/63/40 53/64/40 54/26/40 51/25/40
f 25/53/41 49/56/41 58/55/41 28/54/41
f 49/56/42 50/58/42 59/57/42 58/55/42
f 50/58/43 51/33/43 60/36/43 59/57/43
f 34/65/44 35/66/44 67/67/44 64/68/44
f 64/68/45 67/67/45 68/69/45 65/70/45
f 65/70/46 68/69/46 69/44/46 66/41/46
f 36/59/47 70/60/47 67/61/47 35/62/47
f 70/60/48 71/63/48 68/64/48 67/61/48
f 71/63/49 72/25/49 69/26/49 68/64/49
f 33/59/50 34/62/50 64/61/50 61/60/50
f 61/60/51 64/61/51 65/64/51 62/63/51
f 62/63/52 65/64/52 66/26/52 63/25/52
f 33/65/53 61/68/53 70/67/53 36/66/53
f 61/68/54 62/70/54 71/69/54 70/67/54
f 62/70/55 63/41/55 72/44/55 71/69/55
f 42/71/56 43/72/56 76/73/56 82/74/56
f 82/74/57 76/73/57 77/75/57 83/76/57
f 83/76/58 77/75/58 78/52/58 84/49/58
f 44/59/59 79/60/59 76/61/59 43/62/59
f 79/60/60 80/63/60 77/64/60 76/61/60
f 80/63/61 81/25/61 78/26/61 77/64/61
f 41/59/62 42/62/62 82/61/62 73/60/62
f 73/60/63 82/61/63 83/64/63 74/63/63
f 74/63/64 83/64/64 84/26/64 75/25/64
f 41/71/65 73/74/65 79/73/65 44/72/65
f 73/74/66 74/76/66 80/75/66 79/73/66
f 74/76/67 75/49/67 81/52/67 80/75/67
f 18/77/68 19/78/68 94/79/68 91/80/68
f 91/80/69 94/79/69 95/81/69 92/82/69
f 92/82/70 95/81/70 96/24/70 93/21/70
f 20/59/71 88/60/71 94/61/71 19/62/71
f 88/60/72 89/63/72 95/64/72 94/61/72
f 89/63/73 90/25/73 96/26/73 95/64/73
f 17/59/74 18/62/74 91/61/74 85/60/74
f 85/60/75 91/61/75 92/64/75 86/63/75
f 86/63/76 92/64/76 93/26/76 87/25/76
f 17/77/77 85/80/77 88/79/77 20/78/77
f 85/80/78 86/82/78 89/81/78 88/79/78
f 86/82/79 87/21/79 90/24/79 89/81/79
f 9/83/80 12/84/80 16/85/80 13/86/80
f 13/87/81 16/88/81 15/89/81 14/90/81
f 10/90/82 11/89/82 12/88/82 9/87/82
f 14/86/83 15/85/83 11/84/83 10/83/83
f 6/12/84 7/11/84 3/10/84 2/9/84
f 97/45/85 98/48/85 99/47/85 100/46/85
f 101/45/86 104/46/86 103/47/86 102/48/86
f 107/49/87 113/52/87 104/51/87 101/50/87
f 107/25/88 101/28/88 102/27/88 116/26/88
f 113/25/89 110/26/89 103/27/89 104/28/89
f 116/49/90 102/50/90 103/51/90 110/52/90
f 98/71/91 114/74/91 108/73/91 99/72/91
f 114/74/92 115/76/92 109/75/92 108/73/92
f 115/76/93 116/49/93 110/52/93 109/75/93
f 100/59/94 99/62/94 108/61/94 111/60/94
f 111/60/95 108/61/95 109/64/95 112/63/95
f 112/63/96 109/64/96 110/26/96 113/25/96
f 97/59/97 105/60/97 114/61/97 98/62/97
f 105/60/98 106/63/98 115/64/98 114/61/98
f 106/63/99 107/25/99 116/26/99 115/64/99
f 97/71/100 100/72/100 111/73/100 105/74/100
f 105/74/101 111/73/101 112/75/101 106/76/101
f 106/76/102 112/75/102 113/52/102 107/49/102
f 117/37/103 118/40/103 119/39/103 120/38/103
f 121/37/104 124/38/104 123/39/104 122/40/104
f 127/41/105 136/44/105 124/43/105 121/42/105
f 127/25/106 121/28/106 122/27/106 130/26/106
f 136/25/107 133/26/107 123/27/107 124/28/107
f 130/41/108 122/42/108 123/43/108 133/44/108
f 118/65/109 128/68/109 131/67/109 119/66/109
f 128/68/110 129/70/110 132/69/110 131/67/110
f 129/70/111 130/41/111 133/44/111 132/69/111
f 120/59/112 119/62/112 131/61/112 134/60/112
f 134/60/113 131/61/113 132/64/113 135/63/113
f 135/63/114 132/64/114 133/26/114 136/25/114
f 117/59/115 125/60/115 128/61/115 118/62/115
f 125/60/116 126/63/116 129/64/116 128/61/116
f 126/63/117 127/25/117 130/26/117 129/64/117
f 117/65/118 120/66/118 134/67/118 125/68/118
f 125/68/119 134/67/119 135/69/119 126/70/119
f 126/70/120 135/69/120 136/44/120 127/41/120
