# Blender 4.0.0
# www.blender.org
mtllib soda.mtl
o soda
v -0.039779 -0.098449 0.028187
v -0.039081 0.098818 0.027500
v -0.048306 -0.098461 0.006408
v -0.047400 0.098806 0.006252
v -0.045735 -0.098457 -0.016839
v -0.044892 0.098810 -0.016428
v -0.032656 -0.098439 -0.036228
v -0.032131 0.098828 -0.035345
v -0.012063 -0.098410 -0.047318
v -0.012041 0.098856 -0.046165
v 0.011324 -0.098377 -0.047568
v 0.010776 0.098887 -0.046408
v 0.032149 -0.098348 -0.036921
v 0.031093 0.098916 -0.036021
v 0.045640 -0.098330 -0.017815
v 0.044256 0.098934 -0.017381
v 0.048707 -0.098325 0.005371
v 0.047248 0.098938 0.005240
v 0.040648 -0.098337 0.027328
v 0.039385 0.098927 0.026661
v 0.023308 -0.098361 0.043023
v 0.022468 0.098904 0.041975
v 0.000660 -0.098392 0.048863
v 0.000372 0.098873 0.047672
v -0.022108 -0.098424 0.043509
v -0.021841 0.098842 0.042448
v -0.044615 -0.084671 0.031588
v -0.054171 -0.084684 0.007181
v -0.054398 0.078313 0.007181
v -0.044843 0.078326 0.031588
v -0.051290 -0.084680 -0.018871
v -0.051517 0.078317 -0.018871
v -0.036632 -0.084660 -0.040600
v -0.036859 0.078337 -0.040600
v -0.013555 -0.084628 -0.053028
v -0.013782 0.078370 -0.053028
v 0.012655 -0.084591 -0.053308
v 0.012428 0.078406 -0.053308
v 0.035992 -0.084558 -0.041376
v 0.035765 0.078439 -0.041376
v 0.051112 -0.084537 -0.019965
v 0.050884 0.078460 -0.019965
v 0.054549 -0.084533 0.006020
v 0.054321 0.078465 0.006020
v 0.045517 -0.084545 0.030625
v 0.045289 0.078452 0.030625
v 0.026084 -0.084572 0.048215
v 0.025857 0.078425 0.048215
v 0.000704 -0.084608 0.054759
v 0.000476 0.078389 0.054759
v -0.024811 -0.084643 0.048759
v -0.025039 0.078354 0.048759
v -0.037010 -0.098445 0.026231
v -0.044945 -0.098456 0.005964
v -0.021930 -0.093990 0.043149
v 0.000649 -0.093959 0.048459
v -0.042552 -0.098453 -0.015670
v 0.023110 -0.093928 0.042668
v -0.030380 -0.098436 -0.033715
v 0.040307 -0.093904 0.027102
v -0.011217 -0.098409 -0.044035
v 0.048300 -0.093892 0.005327
v 0.010548 -0.098379 -0.044268
v 0.045258 -0.093897 -0.017668
v 0.029928 -0.098352 -0.034359
v 0.031878 -0.093915 -0.036616
v 0.042483 -0.098334 -0.016579
v 0.011226 -0.093944 -0.047175
v 0.045337 -0.098330 0.004999
v -0.011969 -0.093977 -0.046927
v 0.037837 -0.098341 0.025431
v -0.032391 -0.094005 -0.035929
v 0.021700 -0.098363 0.040038
v -0.045363 -0.094023 -0.016700
v 0.000624 -0.098392 0.045473
v -0.039456 -0.094015 0.027954
v -0.020564 -0.098422 0.040490
v -0.047912 -0.094027 0.006355
v -0.037748 0.093630 0.026564
v -0.045784 0.093619 0.006039
v -0.043361 0.093622 -0.015869
v -0.031035 0.093639 -0.034142
v -0.011628 0.093666 -0.044593
v 0.010412 0.093697 -0.044828
v 0.030037 0.093724 -0.034794
v 0.042751 0.093742 -0.016789
v 0.045642 0.093746 0.005062
v 0.038046 0.093736 0.025754
v 0.021705 0.093713 0.040545
v 0.000362 0.093683 0.046049
v -0.021094 0.093653 0.041003
vn -0.8169 -0.0011 0.5768
vn -0.7968 0.2206 0.5625
vn -0.9670 0.2204 0.1279
vn -0.9914 -0.0014 0.1311
vn -0.9157 0.2205 -0.3360
vn -0.9388 -0.0013 -0.3446
vn -0.6547 0.2208 -0.7229
vn -0.6711 -0.0009 -0.7414
vn -0.2438 0.2214 -0.9442
vn -0.2497 -0.0003 -0.9683
vn 0.2229 0.2220 -0.9492
vn 0.2289 0.0003 -0.9734
vn 0.6385 0.2226 -0.7367
vn 0.6551 0.0009 -0.7556
vn 0.9077 0.2230 -0.3555
vn 0.9312 0.0013 -0.3646
vn 0.9689 0.2231 0.1072
vn 0.9939 0.0014 0.1099
vn 0.8081 0.2229 0.5453
vn 0.8290 0.0012 0.5592
vn 0.4620 0.2224 0.8585
vn 0.4742 0.0007 0.8804
vn 0.0101 0.2217 0.9751
vn 0.0107 -0.0000 0.9999
vn 0.0014 -1.0000 -0.0000
vn -0.4442 0.2211 0.8682
vn -0.4552 -0.0006 0.8904
vn 0.9897 0.0921 0.1095
vn 0.9272 0.0920 -0.3631
vn -0.8214 -0.5599 0.1088
vn -0.6767 -0.5597 0.4784
vn -0.7105 0.4939 0.5012
vn -0.8621 0.4937 0.1140
vn -0.7778 -0.5598 -0.2858
vn -0.8164 0.4938 -0.2994
vn -0.5558 -0.5595 -0.6149
vn -0.5838 0.4941 -0.6442
vn -0.2063 -0.5590 -0.8031
vn -0.2176 0.4946 -0.8414
vn 0.1906 -0.5585 -0.8073
vn 0.1982 0.4952 -0.8459
vn 0.5441 -0.5580 -0.6266
vn 0.5685 0.4957 -0.6565
vn 0.7730 -0.5577 -0.3024
vn 0.8084 0.4961 -0.3168
vn 0.8251 -0.5576 0.0912
vn 0.8630 0.4961 0.0955
vn 0.6883 -0.5578 0.4638
vn 0.7197 0.4959 0.4859
vn 0.3940 -0.5582 0.7302
vn 0.4113 0.4955 0.7650
vn 0.0096 -0.5587 0.8293
vn 0.0086 0.4949 0.8689
vn -0.3768 -0.5593 0.7384
vn -0.3963 0.4944 0.7737
vn -0.9350 0.0894 -0.3432
vn -0.9874 0.0893 0.1306
vn -0.4535 0.0901 0.8867
vn 0.0105 0.0907 0.9958
vn 0.2279 0.0910 -0.9694
vn -0.2488 0.0903 -0.9643
vn 0.8255 0.0918 0.5569
vn -0.0014 1.0000 -0.0000
vn 0.6523 0.0916 -0.7524
vn 0.4721 0.0913 0.8768
vn -0.8136 0.0895 0.5745
vn -0.6684 0.0898 -0.7383
vn -0.4341 -0.2991 0.8498
vn -0.7792 -0.2996 0.5505
vn 0.0106 -0.2985 0.9543
vn 0.4530 -0.2979 0.8403
vn 0.7916 -0.2974 0.5337
vn 0.9490 -0.2972 0.1049
vn 0.8891 -0.2973 -0.3480
vn 0.6256 -0.2976 -0.7211
vn 0.2189 -0.2982 -0.9291
vn -0.2379 -0.2988 -0.9242
vn -0.6401 -0.2994 -0.7076
vn -0.8955 -0.2998 -0.3289
vn -0.9457 -0.2998 0.1252
vt 0.378779 0.357637
vt 0.378779 0.051352
vt 0.459272 0.051352
vt 0.459272 0.357637
vt 0.530546 0.051443
vt 0.530546 0.357728
vt 0.307505 0.728368
vt 0.307505 0.422084
vt 0.378779 0.421993
vt 0.378779 0.728278
vt 0.459272 0.421993
vt 0.459272 0.728278
vt 0.530546 0.422084
vt 0.530546 0.728368
vt 0.012913 0.357728
vt 0.012913 0.051443
vt 0.084187 0.051352
vt 0.084187 0.357637
vt 0.164680 0.051352
vt 0.164680 0.357637
vt 0.235954 0.051443
vt 0.235954 0.357728
vt 0.281679 0.051604
vt 0.281679 0.357888
vt 0.012913 0.728529
vt 0.012913 0.422244
vt 0.084187 0.422154
vt 0.084187 0.728438
vt 0.164680 0.422154
vt 0.164680 0.728438
vt 0.621191 0.398106
vt 0.688350 0.372636
vt 0.689605 0.382972
vt 0.627106 0.406675
vt 0.235954 0.422244
vt 0.235954 0.728529
vt 0.307505 0.357728
vt 0.307505 0.051443
vt 0.261923 0.582739
vt 0.262004 0.519140
vt 0.270332 0.518844
vt 0.270252 0.581917
vt 0.851439 0.249025
vt 0.868486 0.179861
vt 0.887834 0.179861
vt 0.868571 0.258016
vt 0.385181 0.022677
vt 0.452870 0.022677
vt 0.804203 0.302343
vt 0.815194 0.318266
vt 0.376282 0.898071
vt 0.392482 0.832349
vt 0.419233 0.832349
vt 0.399970 0.910504
vt 0.737599 0.327603
vt 0.739931 0.346810
vt 0.376282 0.766627
vt 0.399970 0.754195
vt 0.666885 0.319017
vt 0.660024 0.337107
vt 0.385181 0.393318
vt 0.452870 0.393318
vt 0.608261 0.278552
vt 0.593779 0.291382
vt 0.307505 0.898071
vt 0.323704 0.832349
vt 0.350456 0.832349
vt 0.331193 0.910504
vt 0.575158 0.215478
vt 0.556372 0.220108
vt 0.307505 0.766627
vt 0.331193 0.754195
vt 0.575158 0.144245
vt 0.556372 0.139615
vt 0.090589 0.022677
vt 0.158278 0.022677
vt 0.608261 0.081171
vt 0.593779 0.068341
vt 0.928191 0.714146
vt 0.896734 0.774082
vt 0.870759 0.767680
vt 0.908167 0.696406
vt 0.666885 0.040706
vt 0.660024 0.022616
vt 0.896734 0.841771
vt 0.870759 0.848173
vt 0.737599 0.032120
vt 0.739931 0.012913
vt 0.928191 0.901707
vt 0.908167 0.919447
vt 0.804203 0.057379
vt 0.815194 0.041457
vt 0.090589 0.393478
vt 0.158278 0.393478
vt 0.851439 0.110698
vt 0.868571 0.101707
vt 0.488010 0.766627
vt 0.471811 0.832349
vt 0.445059 0.832349
vt 0.464323 0.754195
vt 0.488010 0.898072
vt 0.464323 0.910504
vt 0.886379 0.372636
vt 0.886298 0.436235
vt 0.877970 0.436532
vt 0.878051 0.373458
vt 0.582781 0.586508
vt 0.566785 0.521608
vt 0.582781 0.456708
vt 0.755960 0.391029
vt 0.810971 0.429000
vt 0.842034 0.488187
vt 0.842034 0.555029
vt 0.810971 0.614215
vt 0.755960 0.652187
vt 0.689605 0.660244
vt 0.627106 0.636541
vt 0.920614 0.372636
vt 0.920533 0.436235
vt 0.912206 0.436532
vt 0.912286 0.373458
vt 0.852144 0.485695
vt 0.852144 0.557521
vt 0.270189 0.649368
vt 0.270108 0.712967
vt 0.261780 0.713264
vt 0.261860 0.650190
vt 0.688350 0.670580
vt 0.621191 0.645110
vt 0.573561 0.591347
vt 0.556372 0.521608
vt 0.261780 0.623541
vt 0.270110 0.622382
vt 0.759653 0.381293
vt 0.844933 0.841747
vt 0.828163 0.909786
vt 0.781695 0.962238
vt 0.716173 0.987087
vt 0.646609 0.978640
vt 0.588938 0.938833
vt 0.556372 0.876784
vt 0.556372 0.806709
vt 0.588938 0.744660
vt 0.646609 0.704853
vt 0.716173 0.696406
vt 0.781695 0.721256
vt 0.828163 0.773708
vt 0.818765 0.621120
vt 0.262004 0.447314
vt 0.261923 0.383715
vt 0.270252 0.384537
vt 0.270332 0.447610
vt 0.573561 0.451869
vt 0.920533 0.508061
vt 0.920614 0.571661
vt 0.912286 0.570838
vt 0.912206 0.507765
vt 0.818765 0.422096
vt 0.886298 0.508061
vt 0.886379 0.571661
vt 0.878051 0.570838
vt 0.877970 0.507765
vt 0.270108 0.784793
vt 0.270189 0.848393
vt 0.261860 0.847570
vt 0.261780 0.784497
vt 0.759653 0.661922
vt 0.321939 0.012992
vt 0.383988 0.012913
vt 0.325245 0.022753
vt 0.159471 0.383715
vt 0.221520 0.383794
vt 0.218214 0.393555
vt 0.089396 0.383715
vt 0.027347 0.383794
vt 0.030653 0.393555
vt 0.221520 0.012992
vt 0.261327 0.013132
vt 0.256666 0.022888
vt 0.218214 0.022753
vt 0.159471 0.012913
vt 0.089396 0.012913
vt 0.027347 0.012992
vt 0.030653 0.022753
vt 0.454063 0.383554
vt 0.516112 0.383633
vt 0.512806 0.393394
vt 0.383988 0.383554
vt 0.321939 0.383633
vt 0.325245 0.393394
vt 0.454063 0.012913
vt 0.516112 0.012992
vt 0.512806 0.022753
s 1
usemtl soda
f 27/1/1 30/2/2 29/3/3 28/4/4
f 28/4/4 29/3/3 32/5/5 31/6/6
f 31/7/6 32/8/5 34/9/7 33/10/8
f 33/10/8 34/9/7 36/11/9 35/12/10
f 35/12/10 36/11/9 38/13/11 37/14/12
f 37/15/12 38/16/11 40/17/13 39/18/14
f 39/18/14 40/17/13 42/19/15 41/20/16
f 41/20/16 42/19/15 44/21/17 43/22/18
f 43/22/18 44/21/17 46/23/19 45/24/20
f 45/25/20 46/26/19 48/27/21 47/28/22
f 47/28/22 48/27/21 50/29/23 49/30/24
f 7/31/25 9/32/25 61/33/25 59/34/25
f 49/30/24 50/29/23 52/35/26 51/36/27
f 51/37/27 52/38/26 30/2/2 27/1/1
f 17/39/28 15/40/29 64/41/29 62/42/28
f 78/43/30 76/44/31 27/45/31 28/46/30
f 79/47/32 80/48/33 29/3/3 30/2/2
f 74/49/34 78/43/30 28/46/30 31/50/34
f 80/51/33 81/52/35 32/53/5 29/54/3
f 72/55/36 74/49/34 31/50/34 33/56/36
f 81/52/35 82/57/37 34/58/7 32/53/5
f 70/59/38 72/55/36 33/56/36 35/60/38
f 82/61/37 83/62/39 36/11/9 34/9/7
f 68/63/40 70/59/38 35/60/38 37/64/40
f 83/65/39 84/66/41 38/67/11 36/68/9
f 66/69/42 68/63/40 37/64/40 39/70/42
f 84/66/41 85/71/43 40/72/13 38/67/11
f 64/73/44 66/69/42 39/70/42 41/74/44
f 85/75/43 86/76/45 42/19/15 40/17/13
f 62/77/46 64/73/44 41/74/44 43/78/46
f 86/79/45 87/80/47 44/81/17 42/82/15
f 60/83/48 62/77/46 43/78/46 45/84/48
f 87/80/47 88/85/49 46/86/19 44/81/17
f 58/87/50 60/83/48 45/84/48 47/88/50
f 88/85/49 89/89/51 48/90/21 46/86/19
f 56/91/52 58/87/50 47/88/50 49/92/52
f 89/93/51 90/94/53 50/29/23 48/27/21
f 55/95/54 56/91/52 49/92/52 51/96/54
f 90/97/53 91/98/55 52/99/26 50/100/23
f 76/44/31 55/95/54 51/96/54 27/45/31
f 91/98/55 79/101/32 30/102/2 52/99/26
f 5/103/56 3/104/57 78/105/57 74/106/56
f 53/107/25 54/108/25 57/109/25 59/34/25 61/33/25 63/110/25 65/111/25 67/112/25 69/113/25 71/114/25 73/115/25 75/116/25 77/117/25
f 25/118/58 23/119/59 56/120/59 55/121/58
f 15/122/25 17/123/25 69/113/25 67/112/25
f 11/124/60 9/125/61 70/126/61 68/127/60
f 23/128/25 25/129/25 77/117/25 75/116/25
f 1/130/25 3/131/25 54/108/25 53/107/25
f 19/132/62 17/39/28 62/42/28 60/133/62
f 9/32/25 11/134/25 63/110/25 61/33/25
f 4/135/63 2/136/63 26/137/63 24/138/63 22/139/63 20/140/63 18/141/63 16/142/63 14/143/63 12/144/63 10/145/63 8/146/63 6/147/63
f 17/123/25 19/148/25 71/114/25 69/113/25
f 13/149/64 11/150/60 68/151/60 66/152/64
f 25/129/25 1/130/25 53/107/25 77/117/25
f 3/131/25 5/153/25 57/109/25 54/108/25
f 21/154/65 19/155/62 60/156/62 58/157/65
f 11/134/25 13/158/25 65/111/25 63/110/25
f 1/159/66 25/160/58 55/161/58 76/162/66
f 7/163/67 5/164/56 74/165/56 72/166/67
f 19/148/25 21/167/25 73/115/25 71/114/25
f 15/40/29 13/149/64 66/152/64 64/41/29
f 5/153/25 7/31/25 59/34/25 57/109/25
f 23/119/59 21/154/65 58/157/65 56/120/59
f 13/158/25 15/122/25 67/112/25 65/111/25
f 9/125/61 7/163/67 72/166/67 70/126/61
f 21/167/25 23/128/25 75/116/25 73/115/25
f 26/168/68 2/169/69 79/47/69 91/170/68
f 24/171/70 26/172/68 91/173/68 90/94/70
f 22/174/71 24/171/70 90/94/70 89/93/71
f 20/175/72 22/174/71 89/93/71 88/176/72
f 18/177/73 20/178/72 88/179/72 87/180/73
f 16/181/74 18/177/73 87/180/73 86/76/74
f 14/182/75 16/181/74 86/76/74 85/75/75
f 12/183/76 14/182/75 85/75/75 84/184/76
f 10/185/77 12/186/76 84/187/76 83/62/77
f 8/188/78 10/185/77 83/62/77 82/61/78
f 6/189/79 8/188/78 82/61/78 81/190/79
f 4/191/80 6/192/79 81/193/79 80/48/80
f 2/169/69 4/191/80 80/48/80 79/47/69
f 3/104/57 1/159/66 76/162/66 78/105/57
