# Blender 4.0.0
# www.blender.org
mtllib trash_can.mtl
o trash_can
v 0.110435 0.641248 0.225089
v 0.160946 0.641248 0.156962
v 0.146151 0.641248 0.205136
v -0.177046 0.659955 0.134574
v -0.127996 0.653321 0.209950
v -0.163713 0.653321 0.189996
v 0.160946 0.641248 -0.156962
v 0.110435 0.641248 -0.225089
v 0.146151 0.641248 -0.205136
v -0.122317 0.641248 -0.225089
v -0.171366 0.647882 -0.164212
v -0.158006 0.640798 -0.205116
v 0.078759 0.003633 0.185075
v 0.135660 0.011882 0.113939
v 0.164355 0.641248 0.206286
v 0.113012 0.641248 0.242566
v -0.185785 0.641248 0.160438
v -0.151148 0.627297 0.226969
v -0.124894 0.641248 -0.242566
v -0.175531 0.631258 -0.197958
v 0.173903 0.641248 -0.160438
v 0.144249 0.632191 -0.228371
v 0.115176 0.012715 0.113914
v 0.100733 0.012673 0.154936
v -0.117499 0.012616 0.153468
v -0.120096 0.012623 -0.149798
v 0.108932 0.012673 -0.143878
v 0.078518 0.012715 -0.163357
v 0.133471 0.625341 0.271166
v -0.220678 0.628343 0.197695
v -0.181398 0.639703 0.239652
v -0.203281 0.627928 -0.179524
v 0.126505 0.523370 0.268353
v 0.185463 0.540808 0.245483
v -0.204355 0.556966 0.193766
v -0.143352 0.561547 0.268757
v -0.185128 0.558449 0.253453
v 0.191900 0.536511 -0.184778
v 0.128665 0.544967 -0.256228
v 0.170272 0.537941 -0.233051
v -0.203485 0.504429 -0.182717
v -0.182747 0.522167 -0.235375
v -0.204416 0.539740 0.005920
v -0.201778 0.534890 0.119920
v 0.179519 0.589136 0.256532
v 0.167279 0.581978 -0.258653
v -0.142573 0.506962 -0.260388
v 0.182288 0.572490 -0.085545
v 0.129519 0.005281 0.119530
v 0.077255 0.012481 0.190581
v 0.119354 0.010753 0.168176
v -0.091610 0.007860 0.189505
v -0.142160 0.004412 0.114161
v -0.147681 0.013656 0.112386
v -0.129460 0.010773 0.170341
v 0.079669 0.007993 -0.189400
v 0.129273 0.003279 -0.115976
v 0.135361 0.012480 -0.112211
v 0.117846 0.010860 -0.170066
v -0.147283 0.010287 -0.110754
v -0.141719 0.003699 -0.109415
v -0.095281 0.005020 -0.184883
v -0.089265 0.013627 -0.191171
v -0.129838 0.010733 -0.169750
v 0.128293 0.641248 0.215112
v -0.008781 0.647284 0.217520
v -0.145855 0.653321 0.199973
v 0.168806 0.641894 0.244512
v -0.176989 0.643323 0.235054
v -0.141118 0.582513 0.271439
v -0.203586 0.535682 0.062389
v 0.182406 0.588823 0.254444
v 0.150956 0.565031 -0.259585
v -0.188704 0.613591 -0.241625
v -0.148093 0.626721 -0.262993
v 0.138777 0.573213 0.285931
v 0.186608 0.582258 -0.224731
v -0.203671 0.628283 0.082499
v -0.203617 0.526525 -0.038524
v -0.194292 0.650757 0.164689
v -0.172145 0.648059 -0.239598
v 0.153549 0.641248 0.181049
v 0.160946 0.641248 -0.000000
v -0.140175 0.641248 -0.215112
v -0.117104 0.614292 0.274157
v -0.164178 0.561368 0.261044
v 0.173182 0.560023 -0.247199
v -0.205671 0.508317 -0.085119
v 0.153549 0.641248 -0.181049
v 0.184881 0.549187 0.105097
v -0.195133 0.648411 -0.175822
v -0.149621 0.627656 0.258503
v 0.170503 0.644706 -0.234193
v 0.156952 0.527609 0.256576
v -0.007518 0.540697 0.268051
v -0.191598 0.507745 -0.211291
v 0.184679 0.648525 0.169117
v 0.189015 0.630511 -0.062205
v 0.173227 0.614553 -0.247054
v -0.194311 0.565515 -0.174810
v 0.132347 0.540855 0.275869
v -0.193238 0.579693 0.100367
v -0.164702 0.644565 -0.184673
v -0.203161 0.546590 0.156561
v -0.170380 0.656638 0.162285
v 0.128293 0.641248 -0.215112
v -0.005941 0.641248 -0.225089
v -0.174206 0.653918 -0.014819
v 0.189512 0.644840 -0.167844
v -0.205221 0.633869 0.218689
v 0.121541 0.646996 -0.257559
v 0.190659 0.519503 -0.090729
v -0.162835 0.510387 -0.248064
v 0.186384 0.527269 -0.018787
v -0.183695 0.588312 0.252380
v 0.194799 0.588044 -0.189580
v 0.188273 0.577264 0.142611
v 0.190200 0.559254 -0.144048
v 0.197060 0.631092 0.155781
v -0.185117 0.646741 0.197082
v -0.195753 0.558333 0.218871
vn 0.1808 -0.6659 -0.7238
vn 0.6286 -0.5723 -0.5266
vn 0.5137 -0.8508 -0.1108
vn 0.2087 0.6156 0.7599
vn -0.1845 -0.6684 0.7205
vn 0.2109 -0.2898 0.9335
vn 0.5741 0.6291 0.5240
vn -0.7066 0.6993 -0.1084
vn -0.1796 0.6848 0.7063
vn -0.9336 0.2701 0.2353
vn -0.6230 -0.5823 0.5223
vn -0.4987 0.2468 0.8309
vn 0.7080 0.5887 0.3900
vn 0.6509 -0.5527 0.5204
vn 0.9241 -0.3662 0.1089
vn -0.4391 -0.8957 -0.0696
vn -0.6490 -0.5480 -0.5277
vn -0.2110 -0.8029 -0.5575
vn 0.1697 -0.8314 0.5291
vn -0.5264 -0.8442 0.1015
vn 0.4868 -0.8669 0.1075
vn -0.5004 0.8521 -0.1537
vn -0.2976 0.9333 -0.2010
vn -0.1594 0.9792 0.1254
vn 0.1438 0.9855 0.0906
vn -0.2710 0.5993 -0.7533
vn -0.8566 0.2884 -0.4279
vn -0.1174 0.9878 0.1021
vn 0.7544 0.6380 -0.1546
vn 0.5251 0.3802 -0.7614
vn -0.1529 0.9499 0.2726
vn -0.0652 0.9102 -0.4089
vn -0.5357 0.8444 0.0013
vn -0.4944 0.8662 -0.0725
vn 0.0027 0.8173 0.5761
vn -0.0786 0.9877 0.1353
vn -0.2852 0.9576 -0.0402
vn -0.6622 0.6555 0.3630
vn 0.5539 0.6251 -0.5500
vn 0.0286 0.9930 0.1145
vn 0.0436 0.9900 0.1341
vn 0.0599 0.9710 -0.2314
vn 0.0214 0.9990 -0.0383
vn -0.4435 0.6410 -0.6265
vn 0.4932 0.7501 0.4406
vn -0.5462 0.8294 -0.1176
vn 0.2469 0.9651 -0.0870
vn -0.1991 0.9106 0.3622
vn -0.3904 0.8254 -0.4077
vn -0.2371 0.0067 0.9715
vn -0.1877 -0.1049 0.9766
vn -0.0211 -0.1474 0.9888
vn -0.2229 0.5513 0.8040
vn 0.1686 0.5617 0.8099
vn 0.0956 0.7612 -0.6414
vn -0.2120 0.3183 -0.9240
vn 0.5102 -0.0198 -0.8599
vn 0.6852 -0.3279 -0.6504
vn 0.1991 -0.2443 -0.9490
vn -0.7264 0.5161 0.4539
vn -0.3364 0.9263 0.1699
vn -0.3764 -0.0029 0.9265
vn -0.6744 0.0674 0.7353
vn 0.9995 -0.0068 0.0312
vn 0.9999 0.0106 -0.0018
vn 0.9895 0.1315 0.0597
vn 1.0000 0.0041 0.0065
vn 0.9966 -0.0819 -0.0117
vn -0.8356 -0.0402 -0.5479
vn -0.9862 -0.0555 -0.1560
vn -0.9728 0.1742 -0.1530
vn 0.9895 -0.0939 -0.1099
vn 0.6881 -0.4536 -0.5664
vn 0.2280 -0.3499 0.9086
vn 0.8416 -0.0897 0.5327
vn 0.8351 0.0687 0.5458
vn -0.9185 -0.3726 -0.1323
vn -0.9512 -0.2804 0.1292
vn -0.1919 -0.2959 -0.9357
vn 0.9470 -0.2980 -0.1200
vn -0.2108 0.9017 -0.3774
vn 0.2243 0.8772 0.4244
vn 0.0420 0.9991 -0.0003
vn -0.4506 0.8821 0.1375
vn -0.3664 0.9293 -0.0472
vn 0.0948 0.8642 0.4942
vn -0.4376 0.8971 0.0614
vn -0.4981 0.8646 0.0664
vn -0.2609 -0.0370 -0.9647
vn 0.1336 -0.3112 -0.9409
vn -0.9995 0.0161 -0.0270
vn -0.9885 0.1510 -0.0094
vn 0.9929 -0.1187 0.0016
vn 0.9722 0.2283 0.0512
vn -0.9839 0.1602 -0.0794
vn -0.9982 -0.0570 -0.0201
vn -0.9845 0.1716 -0.0368
vn -0.9816 -0.1758 0.0744
vn -0.9994 0.0325 0.0073
vn 0.6500 0.7573 -0.0628
vn 0.4135 0.9069 0.0813
vn -0.9640 0.1711 -0.2034
vn 0.9926 0.0449 -0.1130
vn -0.4409 0.6191 0.6498
vn 0.5699 0.0565 0.8198
vn 0.5354 0.7599 -0.3687
vn 0.7187 0.2407 -0.6523
vn 0.3147 -0.0642 0.9470
vn -0.1143 0.3711 0.9215
vn -0.9223 0.3256 0.2083
vn 0.9403 0.0091 -0.3403
vn -0.7961 0.1176 -0.5936
vn -0.9943 -0.0816 0.0682
vn -0.9785 0.2039 0.0304
vn -0.9387 0.1515 -0.3097
vn 0.9961 0.0388 0.0791
vn 0.1248 -0.4200 0.8989
vn -0.9164 -0.1201 0.3817
vn -0.7419 0.0596 0.6679
vn 0.4509 -0.3552 0.8189
vn -0.5294 -0.0604 -0.8462
vt 0.033494 0.927800
vt 0.012721 0.917290
vt 0.006523 0.887849
vt 0.392440 0.712653
vt 0.269336 0.375513
vt 0.360835 0.376440
vt 0.558172 0.889129
vt 0.684654 0.744365
vt 0.666045 0.895218
vt 0.041954 0.017313
vt 0.050806 0.358434
vt 0.006382 0.025449
vt 0.713550 0.006382
vt 0.691634 0.349544
vt 0.662722 0.348860
vt 0.153928 0.884281
vt 0.147448 0.917118
vt 0.128665 0.925335
vt 0.033996 0.724094
vt 0.126657 0.721695
vt 0.154163 0.762669
vt 0.147239 0.732127
vt 0.006382 0.759751
vt 0.723681 0.953509
vt 0.729813 0.939897
vt 0.733573 0.953044
vt 0.751163 0.973665
vt 0.025805 0.010840
vt 0.903022 0.732913
vt 0.885431 0.712269
vt 0.912785 0.737228
vt 0.737921 0.730215
vt 0.722385 0.754247
vt 0.739510 0.717872
vt 0.747719 0.724953
vt 0.752747 0.964195
vt 0.895184 0.967916
vt 0.727717 0.841500
vt 0.726054 0.926750
vt 0.820683 0.720715
vt 0.757518 0.719692
vt 0.055672 0.006382
vt 0.237027 0.014788
vt 0.163341 0.705315
vt 0.141610 0.703643
vt 0.177784 0.377278
vt 0.526484 0.709031
vt 0.503227 0.366362
vt 0.588595 0.366362
vt 0.845689 0.369235
vt 0.877529 0.689031
vt 0.868343 0.687548
vt 0.830167 0.366362
vt 0.859157 0.686065
vt 0.796129 0.686065
vt 0.445978 0.358212
vt 0.448862 0.008156
vt 0.464129 0.009929
vt 0.754692 0.324596
vt 0.746816 0.009102
vt 0.811767 0.010139
vt 0.736565 0.007742
vt 0.504042 0.709410
vt 0.476892 0.366727
vt 0.490059 0.366544
vt 0.881905 0.957723
vt 0.720837 0.974213
vt 0.817326 0.960959
vt 0.922601 0.748931
vt 0.906310 0.743967
vt 0.901502 0.947200
vt 0.908574 0.972075
vt 0.891703 0.952461
vt 0.910812 0.714101
vt 0.199753 0.898993
vt 0.188398 0.900475
vt 0.176661 0.827275
vt 0.894009 0.985019
vt 0.740302 0.989474
vt 0.751637 0.701794
vt 0.898738 0.701794
vt 0.510755 0.726882
vt 0.524194 0.723812
vt 0.519009 0.736258
vt 0.924395 0.963706
vt 0.913270 0.951425
vt 0.187266 0.911393
vt 0.200172 0.921041
vt 0.930309 0.551039
vt 0.955241 0.514886
vt 0.959064 0.553844
vt 0.514749 0.006382
vt 0.507933 0.349535
vt 0.476892 0.011456
vt 0.898845 0.537853
vt 0.943983 0.447565
vt 0.976276 0.009482
vt 0.953144 0.042642
vt 0.919441 0.040325
vt 0.949310 0.604779
vt 0.948370 0.631694
vt 0.936272 0.639168
vt 0.177162 0.751895
vt 0.172323 0.721695
vt 0.198792 0.722862
vt 0.203435 0.353110
vt 0.082092 0.356081
vt 0.050120 0.702818
vt 0.006382 0.388038
vt 0.031403 0.373763
vt 0.249790 0.374541
vt 0.249790 0.705608
vt 0.235627 0.351165
vt 0.384623 0.371776
vt 0.539922 0.348564
vt 0.743160 0.958620
vt 0.905300 0.932112
vt 0.914210 0.931686
vt 0.893434 0.727314
vt 0.909597 0.755043
vt 0.733651 0.743232
vt 0.439874 0.434911
vt 0.434676 0.513104
vt 0.434676 0.370976
vt 0.159712 0.373763
vt 0.137014 0.006382
vt 0.558172 0.724376
vt 0.676623 0.722174
vt 0.682462 0.884439
vt 0.722943 0.687548
vt 0.721937 0.368329
vt 0.733101 0.686065
vt 0.885775 0.008779
vt 0.872752 0.318504
vt 0.876718 0.011177
vt 0.260669 0.014686
vt 0.281233 0.358212
vt 0.249790 0.016703
vt 0.686996 0.366544
vt 0.666634 0.709208
vt 0.673963 0.366362
vt 0.909099 0.917025
vt 0.909348 0.836034
vt 0.918455 0.933797
vt 0.545015 0.896875
vt 0.529604 0.748761
vt 0.984710 0.091371
vt 0.919853 0.182837
vt 0.271559 0.012914
vt 0.352577 0.009648
vt 0.665558 0.352479
vt 0.081373 0.361000
vt 0.361697 0.370976
vt 0.202896 0.356577
vt 0.047161 0.708482
vt 0.029317 0.708932
vt 0.537681 0.353598
vt 0.011897 0.733304
vt 0.928896 0.426944
vt 0.899650 0.419234
vt 0.964399 0.222894
vt 0.946039 0.192331
vt 0.970640 0.202922
vt 0.958876 0.243167
vt 0.967811 0.140957
vt 0.890488 0.595119
vt 0.890293 0.412313
vt 0.986546 0.038260
vt 0.921242 0.607032
vt 0.911042 0.974715
vt 0.712793 0.932934
vt 0.220649 0.749460
vt 0.199282 0.724518
vt 0.225144 0.728750
vt 0.883847 0.721738
vt 0.483584 0.722174
vt 0.496481 0.722174
vt 0.477363 0.749671
vt 0.195554 0.748274
vt 0.216653 0.885513
vt 0.923228 0.366362
vt 0.949283 0.371368
vt 0.920503 0.245641
vt 0.924238 0.626415
vt 0.924295 0.645470
vt 0.926731 0.006382
vt 0.906613 0.638814
vt 0.890293 0.631769
vt 0.907596 0.227514
vt 0.974871 0.116743
vt 0.970123 0.171651
vt 0.713868 0.749985
vt 0.724893 0.714120
vt 0.729381 0.756249
vt 0.221484 0.902129
vt 0.225144 0.918219
vt 0.984386 0.022622
vt 0.937163 0.582607
vt 0.894369 0.371935
vt 0.933197 0.952597
vt 0.538113 0.725393
vt 0.876653 0.993618
vt 0.908118 0.042321
vt 0.476892 0.907775
vt 0.483527 0.896452
vt 0.493847 0.917846
vt 0.166927 0.755036
vt 0.941465 0.274945
vt 0.957977 0.256748
vt 0.957730 0.275461
vt 0.917166 0.256936
vt 0.913454 0.268140
vt 0.433596 0.006382
vt 0.726314 0.006382
vt 0.167226 0.737911
vt 0.421912 0.706728
vt 0.445072 0.498845
vt 0.218357 0.006382
vt 0.712793 0.688798
vt 0.894832 0.006382
vt 0.700029 0.366727
vt 0.545408 0.907180
vt 0.541625 0.917032
vt 0.184719 0.922435
vt 0.907596 0.007429
s 1
usemtl trash
f 56/1/1 59/2/2 57/3/3
f 16/4/4 52/5/5 50/6/6
f 26/7/7 23/8/8 28/9/9
f 17/10/10 55/11/11 18/12/12
f 15/13/13 51/14/14 14/15/15
f 61/16/16 64/17/17 62/18/18
f 13/19/19 52/20/5 53/21/20
f 52/20/5 55/22/11 53/21/20
f 57/3/3 49/23/21 13/19/19
f 15/24/13 82/25/22 3/26/23
f 3/26/23 16/27/4 15/24/13
f 6/28/24 17/10/10 18/12/12
f 12/29/25 19/30/26 20/31/27
f 9/32/28 21/33/29 22/34/30
f 22/34/30 106/35/31 9/32/28
f 1/36/32 18/37/12 16/27/4
f 21/33/29 83/38/33 2/39/34
f 19/30/26 107/40/35 8/41/36
f 4/42/37 20/43/27 17/10/10
f 59/44/2 56/45/1 22/46/30
f 23/47/8 2/48/34 83/49/33
f 27/50/38 9/51/28 106/52/31
f 28/53/9 8/54/36 107/55/35
f 25/56/39 105/57/40 6/58/24
f 25/59/39 5/60/41 66/61/42
f 25/59/39 67/62/43 5/60/41
f 24/63/44 3/64/23 82/65/22
f 5/66/41 68/67/45 66/68/42
f 12/29/25 91/69/46 103/70/47
f 6/71/24 69/72/48 67/73/43
f 8/41/36 81/74/49 107/40/35
f 70/75/50 36/76/51 95/77/52
f 68/67/45 92/78/53 29/79/54
f 111/80/55 75/81/56 81/74/49
f 46/82/57 87/83/58 73/84/59
f 110/85/60 69/72/48 120/86/61
f 86/87/62 70/75/50 115/88/63
f 48/89/64 114/90/65 112/91/66
f 21/92/29 59/93/2 22/94/30
f 98/95/67 90/96/68 114/90/65
f 42/97/69 100/98/70 32/99/71
f 38/100/72 40/101/73 87/102/58
f 101/103/74 34/104/75 72/105/76
f 17/10/10 60/106/77 54/107/78
f 62/18/18 57/3/3 61/16/16
f 63/108/79 20/109/27 19/110/26
f 53/21/20 57/3/3 13/19/19
f 55/111/11 52/5/5 18/112/12
f 64/113/17 60/106/77 20/43/27
f 19/110/26 56/45/1 63/108/79
f 51/114/14 16/4/4 50/6/6
f 21/92/29 14/15/15 58/115/80
f 65/116/81 16/27/4 3/26/23
f 105/117/40 17/118/10 6/71/24
f 67/73/43 18/37/12 5/66/41
f 84/119/82 19/30/26 12/29/25
f 103/70/47 20/31/27 11/120/83
f 89/121/84 21/33/29 9/32/28
f 66/122/42 18/123/12 1/124/32
f 2/39/34 15/24/13 21/33/29
f 8/125/36 22/46/30 19/110/26
f 108/126/85 20/43/27 4/42/37
f 25/127/39 24/128/44 23/8/8
f 23/8/8 27/129/38 28/9/9
f 84/130/82 26/131/7 10/132/86
f 65/133/81 24/134/44 1/135/32
f 103/136/47 26/137/7 12/138/25
f 89/139/84 27/140/38 7/141/87
f 12/29/25 84/119/82 81/74/49
f 4/142/37 108/143/85 80/144/88
f 11/120/83 91/69/46 80/144/88
f 3/26/23 65/116/81 68/67/45
f 5/66/41 69/72/48 68/67/45
f 12/29/25 81/74/49 91/69/46
f 6/71/24 105/117/40 120/86/61
f 8/41/36 111/80/55 81/74/49
f 68/67/45 69/72/48 92/78/53
f 47/145/89 73/84/59 39/146/90
f 32/99/71 88/147/91 78/148/92
f 26/137/7 11/149/83 108/150/85
f 51/14/14 49/151/21 14/15/15
f 53/152/20 55/11/11 54/107/78
f 13/153/19 51/114/14 50/6/6
f 60/106/77 64/113/17 61/154/16
f 62/155/18 64/156/17 63/108/79
f 57/157/3 59/93/2 58/115/80
f 49/23/21 51/158/14 13/19/19
f 52/5/5 13/153/19 50/6/6
f 54/107/78 60/106/77 53/152/20
f 57/157/3 14/15/15 49/151/21
f 98/95/67 114/90/65 48/89/64
f 90/96/68 98/95/67 117/159/93
f 98/95/67 119/160/94 117/159/93
f 104/161/95 102/162/96 44/163/97
f 104/161/95 35/164/98 102/162/96
f 102/162/96 78/148/92 43/165/99
f 98/95/67 109/166/100 97/167/101
f 97/167/101 119/160/94 98/95/67
f 88/147/91 100/98/70 41/168/102
f 116/169/103 109/166/100 98/95/67
f 48/89/64 116/169/103 98/95/67
f 69/72/48 31/170/104 92/78/53
f 97/171/101 82/25/22 3/26/23
f 97/171/101 2/39/34 82/25/22
f 29/172/54 45/173/105 68/174/45
f 120/86/61 105/117/40 80/144/88
f 105/117/40 4/142/37 80/144/88
f 65/116/81 1/36/32 68/67/45
f 108/143/85 11/120/83 80/144/88
f 84/119/82 10/175/86 81/74/49
f 93/176/106 99/177/107 111/178/55
f 99/177/107 46/82/57 111/178/55
f 32/99/71 100/98/70 88/147/91
f 76/179/108 101/103/74 45/173/105
f 29/172/54 85/180/109 76/179/108
f 117/159/93 119/160/94 72/181/76
f 34/182/75 117/159/93 72/181/76
f 35/164/98 30/183/110 78/148/92
f 102/162/96 35/164/98 78/148/92
f 77/184/111 87/102/58 46/185/57
f 116/169/103 38/100/72 77/184/111
f 74/186/112 42/97/69 32/99/71
f 99/187/107 77/184/111 46/185/57
f 93/188/106 116/169/103 99/187/107
f 30/183/110 80/189/88 78/148/92
f 88/147/91 79/190/113 78/148/92
f 79/190/113 43/165/99 78/148/92
f 80/189/88 32/99/71 78/148/92
f 102/162/96 71/191/114 44/163/97
f 102/162/96 43/165/99 71/191/114
f 89/121/84 109/192/100 93/193/106
f 7/194/87 97/171/101 109/192/100
f 2/39/34 97/171/101 83/38/33
f 92/195/53 70/75/50 85/180/109
f 115/88/63 92/195/53 31/196/104
f 100/98/70 96/197/115 41/168/102
f 100/98/70 42/97/69 96/197/115
f 118/198/116 38/100/72 116/169/103
f 68/199/45 119/160/94 97/167/101
f 68/199/45 72/181/76 119/160/94
f 30/200/110 120/86/61 80/144/88
f 73/84/59 87/83/58 39/146/90
f 87/83/58 40/201/73 39/146/90
f 93/193/106 8/41/36 106/35/31
f 9/32/28 93/193/106 106/35/31
f 29/79/54 92/78/53 85/202/109
f 91/203/46 32/99/71 80/189/88
f 81/204/49 75/205/56 74/206/112
f 70/75/50 33/207/117 101/103/74
f 85/180/109 70/75/50 76/179/108
f 97/171/101 3/26/23 68/67/45
f 107/40/35 81/74/49 10/175/86
f 67/73/43 69/72/48 5/66/41
f 115/208/63 121/209/118 37/210/119
f 110/211/60 115/208/63 31/212/104
f 30/183/110 121/209/118 110/211/60
f 75/205/56 73/84/59 47/145/89
f 111/178/55 73/84/59 75/205/56
f 103/70/47 91/69/46 11/120/83
f 66/68/42 68/67/45 1/36/32
f 74/186/112 32/99/71 91/203/46
f 16/4/4 18/112/12 52/5/5
f 26/7/7 25/127/39 23/8/8
f 17/10/10 54/107/78 55/11/11
f 15/24/13 2/39/34 82/25/22
f 22/34/30 8/41/36 106/35/31
f 21/33/29 7/194/87 83/38/33
f 19/30/26 10/175/86 107/40/35
f 83/49/33 7/141/87 27/140/38
f 27/140/38 23/47/8 83/49/33
f 106/52/31 8/54/36 28/53/9
f 28/53/9 27/50/38 106/52/31
f 107/55/35 10/132/86 26/131/7
f 26/131/7 28/53/9 107/55/35
f 25/56/39 4/213/37 105/57/40
f 66/61/42 1/135/32 24/134/44
f 24/134/44 25/59/39 66/61/42
f 25/59/39 6/214/24 67/62/43
f 82/65/22 2/48/34 24/63/44
f 2/48/34 23/47/8 24/63/44
f 111/178/55 46/82/57 73/84/59
f 110/85/60 31/170/104 69/72/48
f 118/198/116 112/91/66 38/100/72
f 86/87/62 36/76/51 70/75/50
f 21/92/29 58/115/80 59/93/2
f 101/103/74 94/215/120 34/104/75
f 17/10/10 20/43/27 60/106/77
f 62/18/18 56/1/1 57/3/3
f 63/108/79 64/156/17 20/109/27
f 53/21/20 61/16/16 57/3/3
f 19/110/26 22/46/30 56/45/1
f 51/114/14 15/216/13 16/4/4
f 21/92/29 15/13/13 14/15/15
f 65/116/81 1/36/32 16/27/4
f 105/117/40 4/142/37 17/118/10
f 67/73/43 6/71/24 18/37/12
f 84/119/82 10/175/86 19/30/26
f 103/70/47 12/29/25 20/31/27
f 89/121/84 7/194/87 21/33/29
f 66/122/42 5/217/41 18/123/12
f 108/126/85 11/218/83 20/43/27
f 84/130/82 12/219/25 26/131/7
f 65/133/81 3/220/23 24/134/44
f 103/136/47 11/149/83 26/137/7
f 89/139/84 9/221/28 27/140/38
f 29/172/54 76/179/108 45/173/105
f 108/150/85 4/213/37 25/56/39
f 25/56/39 26/137/7 108/150/85
f 57/157/3 58/115/80 14/15/15
f 53/152/20 60/106/77 61/154/16
f 56/45/1 62/155/18 63/108/79
f 48/89/64 118/198/116 116/169/103
f 45/173/105 101/103/74 72/105/76
f 101/103/74 33/207/117 94/215/120
f 34/182/75 90/96/68 117/159/93
f 77/184/111 38/100/72 87/102/58
f 113/222/121 42/223/69 74/206/112
f 75/205/56 113/222/121 74/206/112
f 75/205/56 47/145/89 113/222/121
f 99/187/107 116/169/103 77/184/111
f 93/188/106 109/166/100 116/169/103
f 9/32/28 89/121/84 93/193/106
f 89/121/84 7/194/87 109/192/100
f 7/194/87 83/38/33 97/171/101
f 92/195/53 115/88/63 70/75/50
f 37/224/119 86/87/62 115/88/63
f 48/89/64 112/91/66 118/198/116
f 68/174/45 45/173/105 72/105/76
f 120/86/61 69/72/48 6/71/24
f 30/200/110 110/85/60 120/86/61
f 93/193/106 111/80/55 8/41/36
f 70/75/50 95/77/52 33/207/117
f 76/179/108 70/75/50 101/103/74
f 110/211/60 121/209/118 115/208/63
f 30/183/110 35/164/98 121/209/118
f 81/225/49 74/186/112 91/203/46
